<svg width="37" height="38" viewBox="0 0 37 38" fill="none" xmlns="http://www.w3.org/2000/svg">
<rect x="3.30823" y="3.21338" width="29" height="29" rx="7" fill="#DF1414"/>
<path fill-rule="evenodd" clip-rule="evenodd" d="M11.9698 7.6673C12.6009 7.01201 11.5582 2.04273 11.5582 2.04273C11.5582 2.04273 14.6588 5.27823 15.8799 5.0871C17.1009 4.89597 19.3098 0.213379 19.3098 0.213379C19.3098 0.213379 19.543 5.87891 20.8463 6.30212C22.1497 6.72532 29.4348 3.80382 29.4348 3.80382C29.4348 3.80382 25.168 8.62293 25.7854 10.3431C26.4027 12.0632 35.7732 11.7083 35.7732 11.7083C35.7732 11.7083 30.6421 14.07 31.1223 16.2407C31.6024 18.4113 36.3082 21.1963 36.3082 21.1963C36.3082 21.1963 29.3936 20.2543 28.0491 22.4386C26.7046 24.6229 32.9881 34.6844 32.9881 34.6844C32.9881 34.6844 22.8539 27.8317 20.8463 28.9096C18.8388 29.9875 16.1817 36.2134 16.1817 36.2134C16.1817 36.2134 14.5628 28.855 12.7655 28.3772C10.9683 27.8994 7.40122 32.6229 7.40122 32.6229C7.40122 32.6229 8.33414 27.2987 7.40122 25.9881C6.46829 24.6775 1.7625 25.4967 1.7625 25.4967C1.7625 25.4967 6.00182 21.9745 5.59024 20.5137C5.17866 19.053 0.308228 18.0018 0.308228 18.0018C0.308228 18.0018 5.54908 16.8141 5.91951 15.4079C6.28994 14.0018 2.2564 10.5478 2.2564 10.5478C2.2564 10.5478 6.89359 11.7219 7.40122 10.5478C7.90884 9.37379 6.22134 5.0871 6.22134 5.0871C6.22134 5.0871 11.3387 8.32259 11.9698 7.6673ZM11.9698 12.5274C11.2279 13.6468 9.4317 12.855 9.4317 12.855C9.4317 12.855 11.3524 14.2612 11.2427 14.8072C11.09 15.5671 8.48506 16.5137 8.48506 16.5137C8.48506 16.5137 10.2449 16.1688 10.8585 16.5137C11.7743 17.0285 11.5582 19.012 11.5582 19.012C11.5582 19.012 12.6009 17.2236 14.3021 17.2236C16.0033 17.2236 20.8463 22.4386 20.8463 22.4386C20.8463 22.4386 16.5521 17.0188 16.8128 15.4079C17.0735 13.797 20.8463 13.5513 20.8463 13.5513C20.8463 13.5513 18.1038 13.6059 17.9104 12.855C17.7169 12.1042 19.6527 10.3431 19.6527 10.3431C19.6527 10.3431 16.896 11.4513 16.1817 11.0939C15.6037 10.8048 15.6192 8.89597 15.6192 8.89597C15.6192 8.89597 14.9469 10.6298 13.8768 11.0939C13.027 11.4625 11.2427 9.63317 11.2427 9.63317C11.2427 9.63317 12.7117 11.4079 11.9698 12.5274Z" fill="black" stroke="black"/>
</svg>
