<svg version="1.0"
    xmlns="http://www.w3.org/2000/svg" width="168.000000pt" height="176.000000pt" viewBox="0 0 168.000000 176.000000" preserveAspectRatio="xMidYMid meet">
    <g transform="translate(0.000000,176.000000) scale(0.100000,-0.100000)" fill="#df1414" stroke="none">
        <path d="M765 1544 c-38 -118 -71 -217 -75 -219 -3 -2 -87 55 -188 127 -101
72 -185 128 -189 125 -3 -3 26 -99 64 -212 l69 -205 -223 0 c-123 0 -223 -3
-222 -7 0 -5 83 -68 185 -142 102 -73 182 -137 177 -141 -4 -4 -89 -67 -188
-141 l-180 -134 228 -3 c125 -1 227 -5 227 -9 0 -6 -117 -372 -128 -402 -10
-25 18 -8 191 118 91 67 169 121 174 121 4 0 40 -93 78 -207 39 -115 74 -207
79 -206 7 2 77 212 139 416 1 5 70 -40 152 -100 210 -152 216 -156 220 -151 3
2 -26 100 -64 216 l-68 212 111 1 c61 1 164 4 228 8 l116 6 -184 132 -185 131
185 134 c102 73 185 136 186 141 0 4 -103 7 -230 7 -132 0 -230 4 -230 9 0 5
29 103 65 217 36 114 64 208 63 210 -2 1 -84 -58 -183 -131 l-180 -133 -69
214 c-39 118 -73 214 -76 214 -3 0 -37 -97 -75 -216z m126 -455 c70 -15 140
-83 158 -153 20 -79 0 -148 -58 -206 -59 -59 -117 -76 -199 -59 -45 9 -64 20
-102 58 -59 59 -76 117 -59 199 18 87 105 163 196 171 7 1 35 -4 64 -10z"/>
    </g>
</svg>
